<svg width="219" height="17" viewBox="0 0 219 17" fill="none" xmlns="http://www.w3.org/2000/svg">
<g clip-path="url(#clip0_1_927)">
<path d="M106.004 13.168C103.876 13.168 102.602 11.712 102.602 9.29C102.602 6.77 103.918 5.384 106.004 5.384C108.132 5.384 109.406 6.868 109.406 9.29C109.406 11.796 108.09 13.168 106.004 13.168ZM106.004 12.104C107.39 12.104 108.146 11.11 108.146 9.29C108.146 7.484 107.376 6.448 106.004 6.448C104.618 6.448 103.862 7.456 103.862 9.29C103.862 11.082 104.632 12.104 106.004 12.104ZM110.992 13V5.566H112.224V6.714C112.728 5.804 113.526 5.384 114.422 5.384C114.716 5.384 114.982 5.454 115.122 5.566V6.672C114.912 6.602 114.646 6.574 114.352 6.574C112.868 6.574 112.224 7.498 112.224 8.842V13H110.992Z" fill="#898989"/>
<rect y="8" width="98.0909" height="1" fill="#DCDCDC"/>
<rect x="120.545" y="8" width="98.0909" height="1" fill="#DCDCDC"/>
</g>
<defs>
<clipPath id="clip0_1_927">
<rect width="218.636" height="17" fill="white"/>
</clipPath>
</defs>
</svg>
